<svg width="150" height="128" xmlns="http://www.w3.org/2000/svg" preserveAspectRatio="xMidYMid">

 <g>
  <title>Layer 1</title>
  <path stroke-width="1.5" id="svg_1" stroke-opacity="0.7" stroke-linejoin="round" stroke-linecap="round" stroke="#000" fill="#fff" d="m133.62042,17.44122c-0.82396,0.3157 -1.46063,0.6577 -3.08348,1.6706c-0.73653,0.4603 -1.85998,1.1049 -2.49664,1.4469c-1.06108,0.5524 -2.43428,1.3679 -5.53019,3.2752c-0.6117,0.3815 -1.79761,1.0786 -2.62147,1.5521c-2.43428,1.3943 -5.74245,3.3279 -10.04923,5.8534c-5.03078,2.9595 -8.1642,4.6959 -17.16478,9.4969c-4.89344,2.6045 -5.80482,3.1174 -8.67595,4.8668c-1.47306,0.9077 -5.61762,3.1437 -6.6787,3.6173c-1.19834,0.5393 -2.27195,0.855 -2.87113,0.855c-0.58674,0 -1.18601,-0.2894 -7.3653,-3.5384c-3.70752,-1.9599 -7.95194,-4.2091 -9.425,-5.0115c-1.47306,-0.8155 -3.40793,-1.8678 -4.30679,-2.3413c-2.43428,-1.289 -8.75093,-4.9589 -11.60963,-6.7346c-0.96122,-0.592 -2.92116,-1.7627 -4.36915,-2.6045c-1.43566,-0.8287 -4.05713,-2.4071 -5.80481,-3.512c-7.04075,-4.4196 -10.70334,-6.67126 -12.57584,-7.63225c-1.87251,-0.96099 -2.25286,-1.45594 -3.92623,-1.81338s-3.43726,0.00245 -3.21052,6.7064s0.09508,6.98783 0.00119,19.24703s0.17481,27.149 0.41193,28.9511c0.34952,2.6307 0.81143,3.933 1.95994,5.5245c0.33708,0.4605 0.93625,1.3155 1.32327,1.8942c2.0972,3.078 4.09453,4.4853 14.0813,9.9046c2.54667,1.3679 5.76732,3.1307 7.17801,3.9066c1.4106,0.7761 4.35672,2.3808 6.55378,3.5778s4.6938,2.5781 5.55516,3.0648c0.86136,0.4868 2.77136,1.5521 4.24432,2.3678c3.17081,1.7493 8.21413,4.6299 9.79958,5.5902c0.62414,0.3814 2.08476,1.2627 3.24571,1.9731c4.79366,2.92 6.12936,3.4857 8.48875,3.5908c1.3357,0.0527 1.63529,0.0132 2.7463,-0.2893c1.27334,-0.3552 3.15837,-1.2759 6.16686,-3.0254c2.42175,-1.4074 12.29623,-7.0635 14.61812,-8.3656c2.24709,-1.2627 8.95066,-5.1168 12.04657,-6.9057c3.98224,-2.3151 7.3278,-4.2092 11.29751,-6.4059c0.86136,-0.4866 3.75755,-2.0256 6.42895,-3.4461c2.68393,-1.4076 5.3804,-2.9334 6.01707,-3.3675c1.95994,-1.3679 3.20821,-3.1041 3.72005,-5.1956c0.42441,-1.723 0.44938,-3.2884 0.41198,-26.5703c-0.0125,-7.7168 -0.025,-15.4336 -0.0375,-23.1504l0.00705,-1.0128c-0.01792,-1.49869 0.12042,-3.0517 -0.16125,-4.90854s-1.09407,-2.60216 -1.85557,-3.08896c-0.49941,-0.3288 -1.62285,-0.3288 -2.48421,-0.0131l-0.00003,0zm-12.7456,29.3721c0.29959,1.1049 0.47434,15.7975 0.18719,16.442c-0.12483,0.3025 -2.37182,1.7627 -3.78241,2.4598c-0.34961,0.171 -0.66163,0.342 -0.69913,0.3946c-0.0374,0.0394 -0.53681,0.3288 -1.12354,0.6445c-0.58664,0.3026 -1.56039,0.8417 -2.18453,1.1837c-3.02102,1.6969 -4.20692,2.3808 -5.11821,2.9202c-0.27472,0.171 -1.03612,0.6051 -1.69775,0.9865c-1.58545,0.9207 -1.78518,1.0391 -1.86007,1.118c-0.0375,0.0396 -0.26219,0.171 -0.49931,0.3157c-0.5743,0.3158 -1.78518,1.013 -2.49674,1.4207c-0.31202,0.1842 -0.89876,0.5262 -1.31074,0.7629s-0.79899,0.4734 -0.87389,0.5262c-0.06236,0.0525 -0.48678,0.3024 -0.93625,0.5523c-0.44938,0.2631 -1.01115,0.5919 -1.24827,0.7366c-0.23722,0.1448 -0.6866,0.4079 -0.99872,0.5657c-0.31212,0.171 -0.7615,0.4209 -0.99872,0.5787c-0.23712,0.1578 -0.74896,0.4605 -1.12345,0.684c-1.72271,0.9865 -3.00859,1.7625 -3.74502,2.2362c-0.44948,0.2893 -1.14851,0.7233 -1.56049,0.9601c-0.41198,0.2369 -0.91129,0.5525 -1.12354,0.684c-0.19972,0.1316 -0.46181,0.2762 -0.56167,0.3288c-0.09986,0.0527 -0.73653,0.4341 -1.4107,0.855c-0.6866,0.4209 -1.2608,0.7629 -1.2982,0.7629c-0.0375,0 -0.52437,0.2894 -1.08615,0.6446c-1.04855,0.6708 -1.36067,0.855 -2.7838,1.6705c-0.46191,0.2762 -1.04854,0.6182 -1.28576,0.776c-0.78646,0.4999 -4.29435,2.2626 -4.6938,2.3545c-0.31212,0.0791 -0.58674,-0.013 -1.3732,-0.4603c-0.54924,-0.2894 -1.14841,-0.6446 -1.36067,-0.7761c-0.38701,-0.2499 -0.89876,-0.5655 -1.68522,-0.9996c-0.23722,-0.1448 -0.49941,-0.3288 -0.59927,-0.4209c-0.08733,-0.0789 -0.22469,-0.1578 -0.28705,-0.1578c-0.06246,0 -0.47444,-0.2369 -0.92382,-0.5262c-0.44938,-0.2895 -0.84892,-0.5262 -0.87389,-0.5262c-0.0374,0 -0.27462,-0.1316 -0.53671,-0.3026c-0.46191,-0.3157 -1.24837,-0.7759 -2.77136,-1.6441c-0.44938,-0.2499 -0.86136,-0.4998 -0.93625,-0.5525c-0.13736,-0.1051 -1.95994,-1.1311 -3.74502,-2.1046c-0.6117,-0.342 -1.46063,-0.8154 -1.87251,-1.0523c-2.77136,-1.6047 -4.85613,-2.7622 -5.00592,-2.7622c-0.0374,0 -0.14979,-0.0921 -0.24965,-0.1974c-0.11239,-0.1052 -0.29959,-0.1973 -0.42441,-0.1973s-0.26219,-0.0526 -0.29959,-0.1183c-0.04993,-0.0657 -0.62423,-0.4077 -1.2983,-0.7761c-1.57292,-0.8418 -2.07223,-1.1312 -2.14713,-1.2233c-0.08743,-0.1183 -1.32327,-0.8418 -2.0224,-1.1838c-0.33698,-0.1579 -0.59917,-0.3289 -0.59917,-0.3946s-0.0749,-0.1184 -0.14979,-0.1184c-0.19972,0 -1.58545,-0.7498 -1.86007,-0.9997c-0.09986,-0.1052 -0.26209,-0.1842 -0.34952,-0.1842c-0.0749,0 -0.26219,-0.1182 -0.41198,-0.263c-0.14979,-0.1447 -0.33698,-0.2631 -0.42441,-0.2631c-0.13736,0 -1.4481,-0.684 -2.48421,-1.3021c-0.69903,-0.4209 -1.27334,-0.7367 -1.95994,-1.0656c-0.32455,-0.1578 -0.59917,-0.3156 -0.62414,-0.3681c-0.02497,-0.0528 -0.48688,-0.342 -1.03612,-0.6315c-1.09858,-0.5919 -2.7089,-1.4864 -3.03345,-1.6968c-0.46191,-0.3026 -0.83639,-0.513 -0.89885,-0.5261c-0.12483,-0.0263 -1.56039,-0.7892 -1.62285,-0.8681c-0.0374,-0.0395 -0.23712,-0.1842 -0.46191,-0.3026c-0.62414,-0.3288 -1.448,-0.947 -1.78508,-1.3285l-0.31212,-0.3552l-0.06236,-4.2222c-0.06246,-4.4065 0.0374,-11.1412 0.18719,-11.9699c0.09986,-0.5392 0.22469,-0.5787 0.83639,-0.3025c0.22469,0.1053 0.63667,0.2894 0.91129,0.4077c0.89886,0.3947 2.0972,1.0392 3.59522,1.9337c0.81143,0.4998 1.51056,0.8944 1.53552,0.8944s0.27462,0.1447 0.54924,0.3288c0.27462,0.1842 0.79899,0.4999 1.17348,0.7235c0.37448,0.2104 1.57292,0.9076 2.65897,1.5521c1.08605,0.6446 2.0598,1.2101 2.15966,1.2628c0.09986,0.0526 0.29959,0.1578 0.43685,0.2499c0.63667,0.4078 1.88504,1.1443 3.3955,2.0125c0.46191,0.2762 1.04865,0.6182 1.28587,0.7761c0.23712,0.1578 0.6866,0.4209 0.99862,0.5787c0.84892,0.4604 1.13598,0.6314 1.28587,0.7893c0.0749,0.0789 0.23712,0.1446 0.36195,0.1446s0.22469,0.0526 0.22469,0.1316c0,0.0657 0.06246,0.1315 0.13736,0.1315s0.47434,0.2104 0.89885,0.4866c0.42441,0.2631 1.01115,0.6183 1.31074,0.7893c0.83639,0.4735 1.87251,1.0786 2.50918,1.4732c0.31202,0.1973 0.97365,0.5524 1.44809,0.8023c0.48678,0.25 0.89876,0.4999 0.91129,0.5525c0.02497,0.0658 0.08733,0.1052 0.14979,0.1052c0.04993,0 0.6866,0.3552 1.4106,0.7892c0.73653,0.4341 1.36067,0.7893 1.4106,0.7893c0.0375,0 0.22479,0.1052 0.39955,0.2368c0.18719,0.1446 0.84883,0.5393 1.46053,0.8813c1.27334,0.7234 1.84754,1.0522 3.18324,1.8415c0.51184,0.3024 1.2983,0.7629 1.74768,1.0128c1.48559,0.8418 4.90606,2.8411 6.65374,3.8802l0.97375,0.5788l1.3357,-0.7498c0.73653,-0.4077 1.79761,-1.0391 2.37182,-1.3811c0.56177,-0.355 1.06108,-0.6445 1.08605,-0.6445s0.56177,-0.3288 1.186,-0.7235c0.62414,-0.3946 1.14841,-0.7234 1.17338,-0.7234s0.78646,-0.4341 1.71028,-0.9734c0.92372,-0.526 2.00977,-1.1574 2.42175,-1.3942c0.41198,-0.2367 0.81143,-0.4735 0.87389,-0.5262c0.0749,-0.0525 0.48688,-0.3024 0.93625,-0.5524c0.44938,-0.263 1.06108,-0.6182 1.3732,-0.7892c0.31202,-0.1842 0.88632,-0.5262 1.2982,-0.763c0.39955,-0.2235 1.02368,-0.605 1.3732,-0.8154c0.58674,-0.3684 1.08606,-0.6709 2.50919,-1.4864c1.54796,-0.8813 2.34695,-1.3549 3.24571,-1.9073c0.54924,-0.3288 1.08605,-0.6445 1.18591,-0.6971c0.09986,-0.0527 0.52437,-0.2894 0.93625,-0.5262c0.41198,-0.2367 1.2609,-0.7234 1.87251,-1.0654c0.62423,-0.3551 1.4107,-0.8024 1.74778,-0.9997c0.34952,-0.1973 0.98618,-0.5656 1.43556,-0.8287c0.44938,-0.2499 1.06108,-0.6051 1.3732,-0.7761c0.31202,-0.1841 0.87379,-0.513 1.24827,-0.7234c0.37458,-0.2236 1.47306,-0.855 2.43428,-1.4206s2.14723,-1.2496 2.62157,-1.5127c0.89876,-0.513 4.51904,-2.7096 4.74373,-2.8938c0.31202,-0.2499 2.94602,-1.6836 3.4329,-1.8809c0.38701,-0.1447 0.59927,-0.079 0.67417,0.1973l-0.00004,0z"/>
 </g>
</svg>