<?xml version="1.0" encoding="UTF-8" standalone="no"?>
<svg
   version="1.0"
   width="128pt"
   height="128pt"
   viewBox="0 0 128 128"
   preserveAspectRatio="xMidYMid"
   id="svg4"
   sodipodi:docname="logo.svg"
   inkscape:version="1.3.2 (091e20e, 2023-11-25)"
   xmlns:inkscape="http://www.inkscape.org/namespaces/inkscape"
   xmlns:sodipodi="http://sodipodi.sourceforge.net/DTD/sodipodi-0.dtd"
   xmlns="http://www.w3.org/2000/svg"
   xmlns:svg="http://www.w3.org/2000/svg">
  <defs
     id="defs4" />
  <sodipodi:namedview
     id="namedview4"
     pagecolor="#ffffff"
     bordercolor="#000000"
     borderopacity="0.25"
     inkscape:showpageshadow="2"
     inkscape:pageopacity="0.0"
     inkscape:pagecheckerboard="0"
     inkscape:deskcolor="#d1d1d1"
     inkscape:document-units="pt"
     inkscape:zoom="2.1083062"
     inkscape:cx="373.52259"
     inkscape:cy="159.36964"
     inkscape:window-width="2560"
     inkscape:window-height="1387"
     inkscape:window-x="1080"
     inkscape:window-y="273"
     inkscape:window-maximized="1"
     inkscape:current-layer="g4" />
  <g
     transform="matrix(0.1,0,0,-0.1,-31.304746,1168.2364)"
     fill="#ffffff"
     stroke="none"
     id="g4">
    <path
       d="m 1546.2522,11511.737 c -8.35,-3.157 -14.802,-6.577 -31.248,-16.706 -7.464,-4.603 -18.849,-11.049 -25.301,-14.469 -10.753,-5.524 -24.669,-13.679 -56.043,-32.752 -6.199,-3.815 -18.217,-10.786 -26.566,-15.521 -24.669,-13.943 -58.194,-33.279 -101.839,-58.534 -50.982,-29.595 -82.736,-46.959 -173.948,-94.969 -49.5901,-26.045 -58.8261,-31.174 -87.9221,-48.668 -14.928,-9.077 -56.92895,-31.437 -67.68195,-36.173 -12.144,-5.393 -23.024,-8.55 -29.096,-8.55 -5.946,0 -12.01901,2.894 -74.64002,35.384 -37.572,19.599 -80.58501,42.091 -95.51301,50.115 -14.92801,8.155 -34.53601,18.678 -43.64501,23.413 -24.66901,12.89 -88.68202,49.589 -117.65202,67.346 -9.74101,5.92 -29.60301,17.627 -44.27701,26.045 -14.54901,8.287 -41.11501,24.071 -58.82601,35.12 -71.35102,44.196 -104.11602,62.874 -132.20103,75.371 -18.976,8.418 -29.349,11.18 -38.837,10.522 -15.05501,-1.183 -18.47001,-9.602 -23.78401,-57.612 -4.1745,-37.752 -4.9335,-70.767 -4.9335,-193.359 0,-154.687 1.7715,-271.49 4.1745,-289.511 3.542,-26.307 8.223,-39.33 19.862,-55.245 3.41601,-4.605 9.48801,-13.155 13.41001,-18.942 21.253,-30.78 41.494,-44.853 142.70002,-99.046 25.80801,-13.679 58.44601,-31.307 72.74202,-39.066 14.295,-7.761 44.151,-23.808 66.41601,-35.778 22.265,-11.97 47.56701,-25.781 56.29601,-30.648 8.729,-4.868 28.085,-15.521 43.01201,-23.678 32.133,-17.493 83.24201,-46.299 99.30902,-55.902 6.325,-3.814 21.127,-12.627 32.892,-19.731 48.57901,-29.2 62.11501,-34.857 86.02502,-35.908 13.536,-0.527 16.572,-0.132 27.831,2.893 12.904,3.552 32.00695,12.759 62.49495,30.254 24.542,14.074 124.6101,70.635 148.1401,83.656 22.772,12.627 90.706,51.168 122.08,69.057 40.356,23.151 74.26,42.092 114.489,64.059 8.729,4.866 38.079,20.256 65.151,34.461 27.199,14.076 54.525,29.334 60.977,33.675 19.862,13.679 32.512,31.041 37.699,51.956 4.301,17.23 4.554,32.884 4.175,265.703 l -0.38,231.504 -2.783,10.128 c -3.036,11.181 -5.44,30.517 -5.44,44.328 0,17.626 -4.427,30.779 -12.144,35.647 -5.061,3.288 -16.446,3.288 -25.175,0.131 z m -129.164,-293.721 c 3.036,-11.049 4.807,-157.975 1.897,-164.42 -1.265,-3.025 -24.036,-17.627 -38.331,-24.598 -3.543,-1.71 -6.705,-3.42 -7.085,-3.946 -0.379,-0.394 -5.44,-3.288 -11.386,-6.445 -5.945,-3.026 -15.813,-8.417 -22.138,-11.837 -30.615,-16.969 -42.633,-23.808 -51.868,-29.202 -2.784,-1.71 -10.5,-6.051 -17.205,-9.865 -16.067,-9.207 -18.091,-10.391 -18.85,-11.18 -0.38,-0.396 -2.657,-1.71 -5.06,-3.157 -5.82,-3.158 -18.091,-10.13 -25.302,-14.207 -3.162,-1.842 -9.108,-5.262 -13.283,-7.629 -4.175,-2.367 -8.097,-4.734 -8.856,-5.262 -0.632,-0.525 -4.933,-3.024 -9.488,-5.523 -4.554,-2.631 -10.247,-5.919 -12.65,-7.366 -2.404,-1.448 -6.958,-4.079 -10.121,-5.657 -3.163,-1.71 -7.717,-4.209 -10.121,-5.787 -2.403,-1.578 -7.59,-4.605 -11.385,-6.84 -17.458,-9.865 -30.4891,-17.625 -37.9521,-22.362 -4.555,-2.893 -11.639,-7.233 -15.814,-9.601 -4.175,-2.369 -9.235,-5.525 -11.386,-6.84 -2.024,-1.316 -4.68,-2.762 -5.692,-3.288 -1.012,-0.527 -7.464,-4.341 -14.296,-8.55 -6.958,-4.209 -12.777,-7.629 -13.156,-7.629 -0.38,0 -5.314,-2.894 -11.007,-6.446 -10.626,-6.708 -13.789,-8.55 -28.211,-16.705 -4.681,-2.762 -10.62594,-6.182 -13.02994,-7.76 -7.97001,-4.999 -43.51901,-22.626 -47.56701,-23.545 -3.163,-0.791 -5.946,0.13 -13.91601,4.603 -5.566,2.894 -11.638,6.446 -13.789,7.761 -3.922,2.499 -9.108,5.655 -17.078,9.996 -2.404,1.448 -5.061,3.288 -6.073,4.209 -0.885,0.789 -2.277,1.578 -2.909,1.578 -0.633,0 -4.808,2.369 -9.362,5.262 -4.55401,2.895 -8.60301,5.262 -8.85601,5.262 -0.379,0 -2.783,1.316 -5.439,3.026 -4.681,3.157 -12.651,7.759 -28.085,16.441 -4.554,2.499 -8.729,4.998 -9.488,5.525 -1.392,1.051 -19.86201,11.311 -37.95201,21.046 -6.199,3.42 -14.802,8.154 -18.976,10.523 -28.08501,16.047 -49.21201,27.622 -50.73001,27.622 -0.379,0 -1.518,0.921 -2.53,1.974 -1.139,1.052 -3.03601,1.973 -4.30101,1.973 -1.265,0 -2.657,0.526 -3.036,1.183 -0.506,0.657 -6.326,4.077 -13.157,7.761 -15.94,8.418 -21,11.312 -21.759,12.233 -0.886,1.183 -13.41,8.418 -20.49501,11.838 -3.415,1.579 -6.072,3.289 -6.072,3.946 0,0.657 -0.759,1.184 -1.518,1.184 -2.024,0 -16.067,7.498 -18.85,9.997 -1.012,1.052 -2.656,1.842 -3.542,1.842 -0.759,0 -2.657,1.182 -4.175,2.63 -1.518,1.447 -3.415,2.631 -4.301,2.631 -1.392,0 -14.67501,6.84 -25.17501,13.021 -7.084,4.209 -12.904,7.367 -19.862,10.656 -3.289,1.578 -6.072,3.156 -6.325,3.681 -0.253,0.528 -4.934,3.42 -10.5,6.315 -11.13301,5.919 -27.45201,14.864 -30.74101,16.968 -4.681,3.026 -8.476,5.13 -9.109,5.261 -1.265,0.263 -15.813,7.892 -16.446,8.681 -0.379,0.395 -2.40301,1.842 -4.68101,3.026 -6.325,3.288 -14.674,9.47 -18.09,13.285 l -3.163,3.552 -0.632,42.222 c -0.633,44.065 0.379,111.412 1.897,119.699 1.012,5.392 2.277,5.787 8.476,3.025 2.277,-1.053 6.452,-2.894 9.235,-4.077 9.10901,-3.947 21.25301,-10.392 36.43401,-19.337 8.223,-4.998 15.308,-8.944 15.561,-8.944 0.253,0 2.783,-1.447 5.566,-3.288 2.783,-1.842 8.09701,-4.999 11.89201,-7.235 3.795,-2.104 15.94,-9.076 26.946,-15.521 11.006,-6.446 20.87401,-12.101 21.88601,-12.628 1.012,-0.526 3.036,-1.578 4.427,-2.499 6.452,-4.078 19.103,-11.443 34.41,-20.125 4.681,-2.762 10.627,-6.182 13.03101,-7.761 2.403,-1.578 6.958,-4.209 10.12,-5.787 8.603,-4.604 11.512,-6.314 13.031,-7.893 0.759,-0.789 2.403,-1.446 3.668,-1.446 1.265,0 2.277,-0.526 2.277,-1.316 0,-0.657 0.633,-1.315 1.392,-1.315 0.759,0 4.807,-2.104 9.109,-4.866 4.301,-2.631 10.247,-6.183 13.283,-7.893 8.47601,-4.735 18.97601,-10.786 25.42801,-14.732 3.162,-1.973 9.867,-5.524 14.675,-8.023 4.933,-2.5 9.108,-4.999 9.235,-5.525 0.253,-0.658 0.885,-1.052 1.518,-1.052 0.506,0 6.95801,-3.552 14.29501,-7.892 7.464,-4.341 13.789,-7.893 14.295,-7.893 0.38,0 2.278,-1.052 4.049,-2.368 1.897,-1.446 8.602,-5.393 14.801,-8.813 12.90401,-7.234 18.72301,-10.522 32.25901,-18.415 5.187,-3.024 13.157,-7.629 17.711,-10.128 15.055,-8.418 49.71801,-28.411 67.42901,-38.802 l 9.86801,-5.788 13.536,7.498 c 7.464,4.077 18.217,10.391 24.036,13.811 5.693,3.55 10.75301,6.445 11.00601,6.445 0.253,0 5.693,3.288 12.01894,7.235 6.325,3.946 11.638,7.234 11.891,7.234 0.253,0 7.97,4.341 17.332,9.734 9.361,5.26 20.367,11.574 24.542,13.942 4.175,2.367 8.223,4.735 8.856,5.262 0.759,0.525 4.934,3.024 9.488,5.524 4.554,2.63 10.753,6.182 13.916,7.892 3.162,1.842 8.982,5.262 13.156,7.63 4.049,2.235 10.374,6.05 13.916,8.154 5.946,3.684 11.0061,6.709 25.4281,14.864 15.687,8.813 23.784,13.549 32.892,19.073 5.566,3.288 11.006,6.445 12.018,6.971 1.012,0.527 5.314,2.894 9.488,5.262 4.175,2.367 12.778,7.234 18.976,10.654 6.326,3.551 14.296,8.024 17.712,9.997 3.542,1.973 9.994,5.656 14.548,8.287 4.554,2.499 10.753,6.051 13.916,7.761 3.162,1.841 8.855,5.13 12.65,7.234 3.796,2.236 14.928,8.55 24.669,14.206 9.741,5.656 21.76,12.496 26.567,15.127 9.108,5.13 45.796,27.096 48.073,28.938 3.162,2.499 29.855,16.836 34.789,18.809 3.922,1.447 6.073,0.79 6.832,-1.973 z"
       id="path1"
       style="stroke-width:0.128997" />
  </g>
</svg>
