<svg height="128" preserveAspectRatio="xMidYMid" width="128" xmlns="http://www.w3.org/2000/svg"><path d="m122.65585 16.96759c-.82396.3157-1.46063.6577-3.08348 1.6706-.73653.4603-1.85998 1.1049-2.49664 1.4469-1.06108.5524-2.43428 1.3679-5.53019 3.2752-.6117.3815-1.79761 1.0786-2.62147 1.5521-2.43428 1.3943-5.74245 3.3279-10.04923 5.8534-5.03078 2.9595-8.1642 4.6959-17.16478 9.4969-4.89344 2.6045-5.80482 3.1174-8.67595 4.8668-1.47306.9077-5.61762 3.1437-6.6787 3.6173-1.19834.5393-2.27195.855-2.87113.855-.58674 0-1.18601-.2894-7.3653-3.5384-3.70752-1.9599-7.95194-4.2091-9.425-5.0115-1.47306-.8155-3.40793-1.8678-4.30679-2.3413-2.43428-1.289-8.75093-4.9589-11.60963-6.7346-.96122-.592-2.92116-1.7627-4.36915-2.6045-1.43566-.8287-4.05713-2.4071-5.80481-3.512-7.04075-4.4196-10.70334-6.67126-12.57584-7.63225-1.87251-.96099-2.25286-1.45594-3.92623-1.81338s-3.43726.00245-3.21052 6.7064.09508 6.98783.00119 19.24703.17481 27.149.41193 28.9511c.34952 2.6307.81143 3.933 1.95994 5.5245.33708.4605.93625 1.3155 1.32327 1.8942 2.0972 3.078 4.09453 4.4853 14.0813 9.9046 2.54667 1.3679 5.76732 3.1307 7.17801 3.9066 1.4106.7761 4.35672 2.3808 6.55378 3.5778s4.6938 2.5781 5.55516 3.0648c.86136.4868 2.77136 1.5521 4.24432 2.3678 3.17081 1.7493 8.21413 4.6299 9.79958 5.5902.62414.3814 2.08476 1.2627 3.24571 1.9731 4.79366 2.92 6.12936 3.4857 8.48875 3.5908 1.3357.0527 1.63529.0132 2.7463-.2893 1.27334-.3552 3.15837-1.2759 6.16686-3.0254 2.42175-1.4074 12.29623-7.0635 14.61812-8.3656 2.24709-1.2627 8.95066-5.1168 12.04657-6.9057 3.98224-2.3151 7.3278-4.2092 11.29751-6.4059.86136-.4866 3.75755-2.0256 6.42895-3.4461 2.68393-1.4076 5.3804-2.9334 6.01707-3.3675 1.95994-1.3679 3.20821-3.1041 3.72005-5.1956.42441-1.723.44938-3.2884.41198-26.5703-.0125-7.7168-.025-15.4336-.0375-23.1504l.00705-1.0128c-.01792-1.49869.12042-3.0517-.16125-4.90854s-1.09407-2.60216-1.85557-3.08896c-.49941-.3288-1.62285-.3288-2.48421-.0131zm-12.7456 29.3721c.29959 1.1049.47434 15.7975.18719 16.442-.12483.3025-2.37182 1.7627-3.78241 2.4598-.34961.171-.66163.342-.69913.3946-.0374.0394-.53681.3288-1.12354.6445-.58664.3026-1.56039.8417-2.18453 1.1837-3.02102 1.6969-4.20692 2.3808-5.11821 2.9202-.27472.171-1.03612.6051-1.69775.9865-1.58545.9207-1.78518 1.0391-1.86007 1.118-.0375.0396-.26219.171-.49931.3157-.5743.3158-1.78518 1.013-2.49674 1.4207-.31202.1842-.89876.5262-1.31074.7629s-.79899.4734-.87389.5262c-.06236.0525-.48678.3024-.93625.5523-.44938.2631-1.01115.5919-1.24827.7366-.23722.1448-.6866.4079-.99872.5657-.31212.171-.7615.4209-.99872.5787-.23712.1578-.74896.4605-1.12345.684-1.72271.9865-3.00859 1.7625-3.74502 2.2362-.44948.2893-1.14851.7233-1.56049.9601-.41198.2369-.91129.5525-1.12354.684-.19972.1316-.46181.2762-.56167.3288-.09986.0527-.73653.4341-1.4107.855-.6866.4209-1.2608.7629-1.2982.7629-.0375 0-.52437.2894-1.08615.6446-1.04855.6708-1.36067.855-2.7838 1.6705-.46191.2762-1.04854.6182-1.28576.776-.78646.4999-4.29435 2.2626-4.6938 2.3545-.31212.0791-.58674-.013-1.3732-.4603-.54924-.2894-1.14841-.6446-1.36067-.7761-.38701-.2499-.89876-.5655-1.68522-.9996-.23722-.1448-.49941-.3288-.59927-.4209-.08733-.0789-.22469-.1578-.28705-.1578-.06246 0-.47444-.2369-.92382-.5262-.44938-.2895-.84892-.5262-.87389-.5262-.0374 0-.27462-.1316-.53671-.3026-.46191-.3157-1.24837-.7759-2.77136-1.6441-.44938-.2499-.86136-.4998-.93625-.5525-.13736-.1051-1.95994-1.1311-3.74502-2.1046-.6117-.342-1.46063-.8154-1.87251-1.0523-2.77136-1.6047-4.85613-2.7622-5.00592-2.7622-.0374 0-.14979-.0921-.24965-.1974-.11239-.1052-.29959-.1973-.42441-.1973s-.26219-.0526-.29959-.1183c-.04993-.0657-.62423-.4077-1.2983-.7761-1.57292-.8418-2.07223-1.1312-2.14713-1.2233-.08743-.1183-1.32327-.8418-2.0224-1.1838-.33698-.1579-.59917-.3289-.59917-.3946s-.0749-.1184-.14979-.1184c-.19972 0-1.58545-.7498-1.86007-.9997-.09986-.1052-.26209-.1842-.34952-.1842-.0749 0-.26219-.1182-.41198-.263-.14979-.1447-.33698-.2631-.42441-.2631-.13736 0-1.4481-.684-2.48421-1.3021-.69903-.4209-1.27334-.7367-1.95994-1.0656-.32455-.1578-.59917-.3156-.62414-.3681-.02497-.0528-.48688-.342-1.03612-.6315-1.09858-.5919-2.7089-1.4864-3.03345-1.6968-.46191-.3026-.83639-.513-.89885-.5261-.12483-.0263-1.56039-.7892-1.62285-.8681-.0374-.0395-.23712-.1842-.46191-.3026-.62414-.3288-1.448-.947-1.78508-1.3285l-.31212-.3552-.06236-4.2222c-.06246-4.4065.0374-11.1412.18719-11.9699.09986-.5392.22469-.5787.83639-.3025.22469.1053.63667.2894.91129.4077.89886.3947 2.0972 1.0392 3.59522 1.9337.81143.4998 1.51056.8944 1.53552.8944s.27462.1447.54924.3288c.27462.1842.79899.4999 1.17348.7235.37448.2104 1.57292.9076 2.65897 1.5521 1.08605.6446 2.0598 1.2101 2.15966 1.2628.09986.0526.29959.1578.43685.2499.63667.4078 1.88504 1.1443 3.3955 2.0125.46191.2762 1.04865.6182 1.28587.7761.23712.1578.6866.4209.99862.5787.84892.4604 1.13598.6314 1.28587.7893.0749.0789.23712.1446.36195.1446s.22469.0526.22469.1316c0 .0657.06246.1315.13736.1315s.47434.2104.89885.4866c.42441.2631 1.01115.6183 1.31074.7893.83639.4735 1.87251 1.0786 2.50918 1.4732.31202.1973.97365.5524 1.44809.8023.48678.25.89876.4999.91129.5525.02497.0658.08733.1052.14979.1052.04993 0 .6866.3552 1.4106.7892.73653.4341 1.36067.7893 1.4106.7893.0375 0 .22479.1052.39955.2368.18719.1446.84883.5393 1.46053.8813 1.27334.7234 1.84754 1.0522 3.18324 1.8415.51184.3024 1.2983.7629 1.74768 1.0128 1.48559.8418 4.90606 2.8411 6.65374 3.8802l.97375.5788 1.3357-.7498c.73653-.4077 1.79761-1.0391 2.37182-1.3811.56177-.355 1.06108-.6445 1.08605-.6445s.56177-.3288 1.186-.7235c.62414-.3946 1.14841-.7234 1.17338-.7234s.78646-.4341 1.71028-.9734c.92372-.526 2.00977-1.1574 2.42175-1.3942.41198-.2367.81143-.4735.87389-.5262.0749-.0525.48688-.3024.93625-.5524.44938-.263 1.06108-.6182 1.3732-.7892.31202-.1842.88632-.5262 1.2982-.763.39955-.2235 1.02368-.605 1.3732-.8154.58674-.3684 1.08606-.6709 2.50919-1.4864 1.54796-.8813 2.34695-1.3549 3.24571-1.9073.54924-.3288 1.08605-.6445 1.18591-.6971.09986-.0527.52437-.2894.93625-.5262.41198-.2367 1.2609-.7234 1.87251-1.0654.62423-.3551 1.4107-.8024 1.74778-.9997.34952-.1973.98618-.5656 1.43556-.8287.44938-.2499 1.06108-.6051 1.3732-.7761.31202-.1841.87379-.513 1.24827-.7234.37458-.2236 1.47306-.855 2.43428-1.4206s2.14723-1.2496 2.62157-1.5127c.89876-.513 4.51904-2.7096 4.74373-2.8938.31202-.2499 2.94602-1.6836 3.4329-1.8809.38701-.1447.59927-.079.67417.1973z" fill="#fff" stroke="#000" stroke-linecap="round" stroke-linejoin="round" stroke-opacity=".7"/></svg>